<svg width="1438" height="103" viewBox="0 0 1438 103" fill="none" xmlns="http://www.w3.org/2000/svg">
<path d="M-1.62231 0.620141C-1.62231 -8.62225 -1.44457 -17.1398 -1.08908 -24.9324C-0.615101 -32.7249 0.036629 -39.7021 0.866094 -45.8636C1.81406 -52.0252 2.82127 -57.5526 3.88773 -62.4456C5.07268 -67.5198 6.49463 -71.8691 8.15358 -75.4937C9.81252 -79.2994 11.4714 -82.5614 13.1304 -85.2797C14.9078 -88.1793 16.9815 -90.5352 19.3514 -92.3474C21.7214 -94.3409 23.9727 -95.8813 26.1057 -96.9686C28.357 -98.2372 30.9047 -99.1433 33.7486 -99.687C36.5925 -100.412 39.2587 -100.865 41.7471 -101.046C44.354 -101.409 47.3164 -101.59 50.6343 -101.59C54.9001 -101.59 58.5734 -101.409 61.6544 -101.046C64.8537 -100.684 68.1716 -99.8682 71.608 -98.5996C75.1629 -97.5123 78.1845 -95.8813 80.6729 -93.7066C83.1613 -91.5319 85.6497 -88.723 88.1381 -85.2797C90.745 -82.0177 92.8779 -77.759 94.5369 -72.5035C96.1959 -67.4293 97.677 -61.4489 98.9805 -54.5624C100.284 -47.8572 101.232 -39.7926 101.824 -30.369C102.535 -21.1267 102.891 -10.7969 102.891 0.620141C102.891 12.9434 102.417 23.9979 101.469 33.784C100.639 43.3889 99.5137 51.7251 98.0918 58.7928C96.6698 65.6794 94.7146 71.6598 92.2262 76.734C89.8563 81.627 87.3087 85.6138 84.5833 88.6947C81.9764 91.5942 78.777 93.9502 74.9851 95.7624C71.1932 97.3934 67.4014 98.4807 63.6095 99.0244C59.9362 99.5681 55.6111 99.8399 50.6343 99.8399C46.25 99.8399 42.3988 99.6588 39.0809 99.2962C35.8816 98.9337 32.5044 98.2089 28.9496 97.1216C25.5131 96.0342 22.5508 94.4939 20.0624 92.5004C17.574 90.3257 15.0856 87.6074 12.5972 84.3453C10.1088 80.9022 8.03509 76.734 6.37614 71.8409C4.7172 66.7667 3.23601 60.9675 1.93255 54.4435C0.747603 47.7383 -0.141114 39.9455 -0.733597 31.0657C-1.32607 22.0044 -1.62231 11.8561 -1.62231 0.620141ZM23.2618 0.620141C23.2618 11.8561 23.4988 21.0984 23.9727 28.3473C24.4467 35.415 25.217 41.4861 26.2834 46.5603C27.4683 51.6345 29.1866 55.4401 31.438 57.9773C33.6893 60.5145 36.237 62.3267 39.0809 63.414C42.0433 64.3202 45.8945 64.7732 50.6343 64.7732C57.981 64.7732 63.4911 63.1422 67.1644 59.8802C70.8377 56.6182 73.5632 50.4566 75.3406 41.3954C77.118 32.153 78.0068 18.5613 78.0068 0.620141C78.0068 -9.70959 77.7697 -18.499 77.2958 -25.7479C76.9403 -33.1781 76.2293 -39.3396 75.1629 -44.2326C74.0964 -49.3068 72.9115 -53.2939 71.608 -56.1934C70.4231 -59.0929 68.7048 -61.2676 66.4534 -62.7174C64.2021 -64.3484 61.8914 -65.3451 59.5214 -65.7076C57.2701 -66.2513 54.3076 -66.5231 50.6343 -66.5231C47.5533 -66.5231 45.0058 -66.342 42.9913 -65.9794C41.0954 -65.7983 39.0216 -65.2546 36.7703 -64.3484C34.6374 -63.4422 32.9192 -61.9926 31.6157 -59.9991C30.4308 -58.1869 29.1866 -55.6497 27.8831 -52.3877C26.6982 -49.1257 25.8095 -45.0481 25.217 -40.1551C24.6244 -35.4432 24.1505 -29.7347 23.795 -23.0295C23.4395 -16.3243 23.2618 -8.4411 23.2618 0.620141ZM119.581 60.152V-100.231H144.465V49.5504C144.465 52.9936 144.702 55.8027 145.176 57.9773C145.769 59.9709 146.716 61.33 148.02 62.0549C149.442 62.7797 150.568 63.2329 151.397 63.414C152.226 63.5952 153.589 63.6859 155.485 63.6859H200.098V98.7526H146.598C128.586 98.7526 119.581 85.8857 119.581 60.152ZM212.018 -1.82638C212.018 -14.1496 212.314 -25.023 212.907 -34.4466C213.618 -44.0515 214.862 -53.2032 216.64 -61.9019C218.535 -70.7818 221.024 -78.0309 224.105 -83.6487C227.304 -89.4479 231.392 -93.9784 236.369 -97.2405C241.464 -100.684 247.507 -102.405 254.499 -102.405C264.571 -102.405 273.102 -101.771 280.094 -100.503C287.204 -99.4152 295.32 -97.1499 304.445 -93.7066V-64.0766C304.327 -64.0766 303.319 -64.2577 301.423 -64.6203C299.646 -64.9828 297.217 -65.3451 294.136 -65.7076C291.174 -66.2513 287.915 -66.7043 284.36 -67.0668C280.805 -67.6104 276.835 -67.973 272.451 -68.1541C268.185 -68.5166 264.157 -68.6978 260.365 -68.6978C257.047 -68.6978 254.144 -68.1541 251.655 -67.0668C249.285 -66.1606 247.212 -64.5296 245.434 -62.1737C243.775 -59.8179 242.353 -56.9182 241.168 -53.475C240.102 -50.213 239.213 -45.8636 238.502 -40.4269C237.909 -35.1714 237.495 -29.4629 237.258 -23.3013C237.021 -17.321 236.902 -9.98143 236.902 -1.2827C236.902 24.9946 238.324 42.5734 241.168 51.4533C244.012 60.152 249.996 64.5014 259.12 64.5014C261.371 64.5014 263.682 64.1389 266.052 63.414C268.423 62.5078 270.496 61.5112 272.273 60.4239C274.051 59.1554 275.651 57.8867 277.072 56.6182C278.612 55.3497 279.739 54.2623 280.45 53.3561C281.161 52.4499 281.516 51.997 281.516 51.997V16.3866H263.386V-7.80674C270.378 -12.1561 280.687 -14.3308 294.314 -14.3308C298.106 -14.3308 302.134 -14.1496 306.4 -13.7871V98.7526H288.626L281.872 85.4327C280.687 87.2448 279.501 88.7854 278.317 90.0539C277.132 91.3224 275.71 92.5911 274.051 93.8596C272.391 95.128 270.614 96.2154 268.719 97.1216C266.941 97.8464 264.808 98.4807 262.32 99.0244C259.949 99.5681 257.283 99.9306 254.321 100.112C247.212 100.474 241.05 98.9337 235.836 95.4906C230.622 92.0474 226.475 87.4262 223.394 81.627C220.432 75.8278 218.062 68.3071 216.284 59.0647C214.507 49.6411 213.322 40.3081 212.729 31.0657C212.256 21.6421 212.018 10.678 212.018 -1.82638ZM324.576 11.7654V-100.231H349.46V11.7654C349.46 23.1825 349.875 32.3342 350.704 39.2207C351.533 46.1073 353.015 51.544 355.148 55.5308C357.281 59.3365 359.829 61.8737 362.791 63.1422C365.753 64.4107 369.723 65.045 374.699 65.045C379.083 65.045 382.698 64.3202 385.542 62.8704C388.386 61.4205 390.814 58.7928 392.829 54.9871C394.962 51.0003 396.502 45.5636 397.451 38.677C398.399 31.6093 398.873 22.6388 398.873 11.7654V-100.231H423.934V11.7654C423.934 21.3703 423.579 30.1595 422.868 38.1334C422.157 45.9259 421.268 52.7218 420.202 58.521C419.135 64.1389 417.654 69.2132 415.758 73.7438C413.981 78.2743 412.203 81.9895 410.426 84.889C408.767 87.6073 406.575 90.0539 403.849 92.2285C401.243 94.2221 398.991 95.7624 397.095 96.8497C395.2 97.7559 392.652 98.4807 389.452 99.0244C386.371 99.5681 383.882 99.8399 381.987 99.8399C380.21 100.021 377.781 100.112 374.699 100.112C374.344 100.112 373.751 100.112 372.922 100.112C368.419 100.112 364.983 100.021 362.613 99.8399C360.362 99.6588 357.221 99.0244 353.193 97.9371C349.164 96.8497 346.023 95.3094 343.772 93.3159C341.639 91.1412 339.151 87.9699 336.307 83.8017C333.463 79.4523 331.33 74.1968 329.908 68.0352C328.486 61.8737 327.242 54.081 326.176 44.6574C325.109 35.0525 324.576 24.0886 324.576 11.7654ZM442.609 98.7526V-100.231H467.493V98.7526H442.609ZM486.177 98.7526V-100.231H511.416L562.962 28.3473V-100.231H587.846V98.7526H562.962L511.238 -28.4662V98.7526H486.177ZM661.064 -1.2827C661.064 -14.6933 661.419 -26.3822 662.13 -36.3494C662.959 -46.3166 664.381 -55.559 666.396 -64.0766C668.411 -72.7753 671.077 -79.843 674.394 -85.2797C677.712 -90.7164 681.919 -94.8846 687.014 -97.7842C692.228 -100.865 698.33 -102.405 705.322 -102.405C722.267 -102.405 737.375 -99.4151 750.646 -93.4348V-63.5329C750.646 -63.5329 750.351 -63.5329 749.758 -63.5329C749.284 -63.7141 748.573 -63.8954 747.625 -64.0766C746.676 -64.2577 745.552 -64.4391 744.248 -64.6203C742.944 -64.8014 741.463 -64.9828 739.804 -65.1639C738.145 -65.3451 736.427 -65.5265 734.649 -65.7076C732.872 -65.8888 730.977 -66.0701 728.962 -66.2513C727.066 -66.4324 725.111 -66.6138 723.096 -66.7949C721.201 -66.9761 719.186 -67.0668 717.053 -67.0668C714.92 -67.2479 712.965 -67.3386 711.187 -67.3386C707.87 -67.3386 705.084 -67.0668 702.833 -66.5231C700.7 -66.1606 698.568 -65.1639 696.435 -63.5329C694.42 -61.9019 692.82 -59.5461 691.636 -56.4652C690.451 -53.5657 689.385 -49.6693 688.436 -44.7763C687.488 -39.8833 686.836 -33.8122 686.481 -26.5634C686.125 -19.4956 685.948 -10.8876 685.948 -0.739033C685.948 22.8199 687.665 39.7644 691.102 50.0941C694.657 60.2427 701.352 65.3169 711.187 65.3169C716.757 65.3169 722.8 65.1357 729.317 64.7732C735.953 64.4107 741.166 64.0484 744.959 63.6859L750.646 63.1422V92.7722C739.033 98.2089 723.925 100.746 705.322 100.384C697.264 100.202 690.332 97.8464 684.526 93.3159C678.72 88.604 674.099 81.8081 670.662 72.9282C667.344 63.867 664.914 53.3561 663.374 41.3954C661.834 29.2535 661.064 15.0274 661.064 -1.2827ZM761.362 98.7526L805.265 -100.231H833.526L875.829 98.7526H849.345L840.103 54.7153H797.444L788.024 98.7526H761.362ZM804.021 21.0078H834.237L819.662 -50.213L804.021 21.0078ZM887.095 -33.3592V-50.4848C887.095 -58.0962 887.688 -64.8921 888.873 -70.8725C890.057 -76.8528 891.657 -81.7459 893.672 -85.5516C895.686 -89.3573 898.175 -92.4381 901.137 -94.794C904.218 -97.3311 907.418 -99.0527 910.735 -99.9588C914.172 -101.046 918.022 -101.68 922.288 -101.862C931.294 -102.224 940.596 -101.59 950.194 -99.9588C959.792 -98.3278 967.257 -96.3344 972.59 -93.9785V-64.0766C959.081 -65.8888 944.566 -66.7949 929.043 -66.7949C922.762 -66.9761 918.318 -65.8888 915.712 -63.5329C913.223 -61.3582 911.979 -56.0122 911.979 -47.4947V-37.7086C911.979 -30.0972 912.986 -25.023 915.001 -22.4858C917.016 -19.9486 920.629 -18.6801 925.843 -18.6801H946.461C949.543 -18.6801 952.387 -18.2272 954.993 -17.321C957.719 -16.4148 960.03 -15.1463 961.925 -13.5153C963.94 -11.8843 965.717 -9.98142 967.257 -7.80674C968.917 -5.63206 970.279 -3.18555 971.345 -0.467201C972.53 2.25115 973.478 5.06019 974.189 7.95969C975.018 10.678 975.611 13.5775 975.967 16.6584C976.44 19.7393 976.737 22.7295 976.856 25.629C977.093 28.3473 977.211 31.1564 977.211 34.0559V47.3758C977.211 56.0745 976.5 63.6859 975.078 70.2099C973.656 76.7339 971.819 81.8988 969.568 85.7045C967.435 89.5102 964.709 92.5911 961.392 94.9469C958.192 97.3027 954.993 98.8433 951.794 99.5681C948.594 100.474 945.099 100.927 941.307 100.927C919.86 100.927 903.092 98.2089 891.005 92.7722V62.8704C904.04 64.8639 919.149 65.8605 936.33 65.8605C938.581 65.8605 940.478 65.6794 942.018 65.3169C943.677 64.9544 945.335 64.2295 946.995 63.1422C948.772 62.0549 950.076 60.3332 950.905 57.9773C951.853 55.4401 952.327 52.3595 952.327 48.7349V38.1334C952.327 31.7905 951.498 27.0788 949.839 23.998C948.179 20.9171 945.099 19.3768 940.596 19.3768H920.689C898.293 19.1956 887.095 1.6168 887.095 -33.3592ZM988.737 -65.1639V-100.231H1084.9V-65.1639H1048.81V98.7526H1023.93V-65.1639H988.737ZM1099.25 98.7526V-100.231H1124.14V98.7526H1099.25ZM1142.82 60.152V-100.231H1167.7V49.5504C1167.7 52.9936 1167.94 55.8027 1168.42 57.9773C1169.01 59.9709 1169.96 61.33 1171.26 62.0549C1172.68 62.7797 1173.81 63.2329 1174.64 63.414C1175.47 63.5952 1176.83 63.6859 1178.72 63.6859H1223.34V98.7526H1169.84C1151.83 98.7526 1142.82 85.8857 1142.82 60.152ZM1238.64 60.152V-100.231H1263.52V49.5504C1263.52 52.9936 1263.76 55.8027 1264.23 57.9773C1264.82 59.9709 1265.77 61.33 1267.07 62.0549C1268.5 62.7797 1269.62 63.2329 1270.45 63.414C1271.28 63.5952 1272.64 63.6859 1274.54 63.6859H1319.15V98.7526H1265.65C1247.64 98.7526 1238.64 85.8857 1238.64 60.152ZM1332.5 0.620141C1332.5 -8.62225 1332.67 -17.1398 1333.03 -24.9324C1333.5 -32.7249 1334.15 -39.7021 1334.98 -45.8636C1335.93 -52.0252 1336.94 -57.5526 1338.01 -62.4456C1339.19 -67.5198 1340.61 -71.8691 1342.27 -75.4937C1343.93 -79.2994 1345.59 -82.5614 1347.25 -85.2797C1349.03 -88.1793 1351.1 -90.5352 1353.47 -92.3474C1355.84 -94.3409 1358.09 -95.8813 1360.22 -96.9686C1362.47 -98.2372 1365.02 -99.1433 1367.87 -99.687C1370.71 -100.412 1373.38 -100.865 1375.86 -101.046C1378.47 -101.409 1381.43 -101.59 1384.75 -101.59C1389.02 -101.59 1392.69 -101.409 1395.77 -101.046C1398.97 -100.684 1402.28 -99.8682 1405.73 -98.5996C1409.28 -97.5123 1412.3 -95.8813 1414.8 -93.7066C1417.28 -91.5319 1419.77 -88.723 1422.25 -85.2797C1424.86 -82.0177 1427 -77.759 1428.65 -72.5035C1430.31 -67.4293 1431.79 -61.4489 1433.1 -54.5624C1434.4 -47.8572 1435.35 -39.7926 1435.94 -30.369C1436.65 -21.1267 1437.01 -10.7969 1437.01 0.620141C1437.01 12.9434 1436.53 23.9979 1435.58 33.784C1434.75 43.3889 1433.63 51.7251 1432.21 58.7928C1430.79 65.6794 1428.83 71.6598 1426.35 76.734C1423.97 81.627 1421.42 85.6138 1418.7 88.6947C1416.09 91.5942 1412.89 93.9502 1409.1 95.7624C1405.31 97.3934 1401.52 98.4807 1397.73 99.0244C1394.05 99.5681 1389.73 99.8399 1384.75 99.8399C1380.37 99.8399 1376.52 99.6588 1373.2 99.2962C1370 98.9337 1366.62 98.2089 1363.07 97.1216C1359.63 96.0342 1356.67 94.4939 1354.18 92.5004C1351.69 90.3257 1349.2 87.6074 1346.71 84.3453C1344.23 80.9022 1342.15 76.734 1340.49 71.8409C1338.83 66.7667 1337.35 60.9675 1336.05 54.4435C1334.87 47.7383 1333.98 39.9455 1333.38 31.0657C1332.79 22.0044 1332.5 11.8561 1332.5 0.620141ZM1357.38 0.620141C1357.38 11.8561 1357.62 21.0984 1358.09 28.3473C1358.56 35.415 1359.33 41.4861 1360.4 46.5603C1361.59 51.6345 1363.3 55.4401 1365.56 57.9773C1367.81 60.5145 1370.35 62.3267 1373.2 63.414C1376.16 64.3202 1380.01 64.7732 1384.75 64.7732C1392.09 64.7732 1397.6 63.1422 1401.28 59.8802C1404.95 56.6182 1407.69 50.4566 1409.46 41.3954C1411.24 32.153 1412.13 18.5613 1412.13 0.620141C1412.13 -9.70959 1411.89 -18.499 1411.41 -25.7479C1411.06 -33.1781 1410.35 -39.3396 1409.28 -44.2326C1408.21 -49.3068 1407.03 -53.2939 1405.73 -56.1934C1404.53 -59.0929 1402.83 -61.2676 1400.58 -62.7174C1398.31 -64.3484 1396.01 -65.3451 1393.63 -65.7076C1391.38 -66.2513 1388.43 -66.5231 1384.75 -66.5231C1381.67 -66.5231 1379.12 -66.342 1377.11 -65.9794C1375.21 -65.7983 1373.14 -65.2546 1370.89 -64.3484C1368.75 -63.4422 1367.04 -61.9926 1365.73 -59.9991C1364.55 -58.1869 1363.3 -55.6497 1362 -52.3877C1360.82 -49.1257 1359.93 -45.0481 1359.33 -40.1551C1358.74 -35.4432 1358.27 -29.7347 1357.91 -23.0295C1357.56 -16.3243 1357.38 -8.4411 1357.38 0.620141Z" fill="white" fill-opacity="0.8"/>
</svg>
